<?xml version="1.0" standalone="no"?>
<!DOCTYPE svg PUBLIC "-//W3C//DTD SVG 20010904//EN"
 "http://www.w3.org/TR/2001/REC-SVG-20010904/DTD/svg10.dtd">
<svg version="1.0" xmlns="http://www.w3.org/2000/svg"
 width="1920.000000pt" height="1920.000000pt" viewBox="0 0 1920.000000 1920.000000"
 preserveAspectRatio="xMidYMid meet">

<g transform="translate(0.000000,1920.000000) scale(0.100000,-0.100000)"
fill="#000000" stroke="none">
<path d="M9350 15385 c-467 -67 -885 -270 -1222 -594 -356 -341 -589 -802
-652 -1289 -19 -146 -5 -199 67 -242 31 -19 56 -20 764 -20 l733 0 2 579 3
579 24 26 c38 41 90 52 135 31 68 -33 66 -11 66 -645 l0 -570 425 0 425 0 0
563 c0 634 -2 614 74 651 36 17 43 18 79 5 22 -8 50 -27 61 -42 21 -28 21 -38
23 -600 l3 -572 717 -3 c498 -2 730 0 756 8 26 8 47 24 68 53 31 42 31 43 25
137 -30 478 -316 1048 -697 1390 -326 293 -673 463 -1114 546 -123 23 -626 29
-765 9z"/>
<path d="M7090 12999 c-138 -22 -271 -125 -334 -259 -29 -61 -31 -72 -31 -185
0 -116 1 -122 34 -190 45 -92 124 -171 216 -216 l70 -34 2630 -3 c2388 -2
2634 -1 2685 14 261 76 393 373 276 620 -64 135 -191 231 -336 254 -82 13
-5130 12 -5210 -1z"/>
<path d="M7287 11868 c-139 -13 -277 -108 -343 -234 -110 -208 -47 -447 154
-586 58 -40 139 -68 229 -78 115 -13 130 -33 153 -215 16 -117 69 -326 114
-442 295 -771 996 -1318 1812 -1414 57 -7 195 -9 351 -6 209 3 280 8 373 26
940 179 1652 915 1789 1852 10 68 23 134 30 147 15 29 62 52 105 52 211 0 411
173 448 388 32 188 -71 381 -250 469 l-76 38 -2410 5 c-1326 3 -2442 2 -2479
-2z"/>
<path d="M14407 10648 c-14 -18 -159 -244 -322 -503 -163 -258 -312 -492 -330
-520 -17 -27 -110 -174 -206 -325 -221 -351 -502 -795 -949 -1500 -195 -308
-394 -622 -442 -697 l-87 -138 828 -5 c751 -5 829 -7 852 -22 59 -38 64 30
-89 -1300 -77 -673 -139 -1224 -137 -1226 3 -3 259 401 1203 1893 94 149 191
302 215 340 25 39 190 300 368 580 178 281 398 629 491 775 113 179 168 274
168 293 0 16 -10 38 -25 52 l-24 25 -767 0 c-701 0 -768 1 -795 17 -34 20 -54
64 -51 113 0 19 53 490 117 1045 64 556 117 1030 118 1053 2 35 -3 48 -22 63
-38 31 -85 25 -114 -13z"/>
<path d="M4064 9479 c-425 -277 -696 -673 -801 -1168 -24 -114 -27 -147 -27
-346 -1 -248 11 -338 70 -533 134 -442 427 -808 841 -1047 144 -84 127 60 133
-1158 4 -757 9 -1061 17 -1084 58 -163 204 -298 356 -333 26 -5 249 -10 536
-10 490 -1 492 -1 528 21 21 13 43 39 54 63 18 39 19 92 19 1224 l0 1184 33
31 c18 18 69 51 113 75 159 85 369 263 497 422 184 228 319 519 373 806 21
117 31 306 22 457 -33 567 -353 1102 -839 1402 -61 37 -81 45 -122 45 -59 0
-100 -22 -130 -70 -22 -35 -22 -39 -27 -680 -6 -715 -2 -673 -76 -826 -155
-317 -527 -463 -855 -334 -143 57 -280 184 -348 322 -77 158 -74 127 -81 848
-5 600 -6 648 -23 673 -28 44 -75 67 -133 67 -45 0 -61 -6 -130 -51z"/>
<path d="M8050 8639 c-175 -28 -488 -93 -755 -156 -167 -39 -213 -62 -240
-119 -16 -35 -17 -48 -7 -144 35 -319 16 -560 -63 -835 -138 -475 -454 -893
-869 -1149 l-96 -60 0 -1136 0 -1137 23 -33 c39 -59 68 -69 205 -71 137 -1
168 9 209 71 l23 33 0 933 c0 814 2 938 15 972 37 91 158 96 208 9 9 -17 13
-242 17 -979 l5 -956 25 -27 c55 -59 -11 -55 1132 -55 981 0 1053 1 1081 18
17 9 39 30 51 45 l21 28 3 2380 2 2379 -467 -1 c-258 -1 -493 -5 -523 -10z"/>
<path d="M9270 6288 l0 -2362 21 -42 c11 -24 35 -52 53 -64 32 -19 49 -20 352
-20 301 0 321 1 352 20 18 11 41 34 52 52 20 33 20 56 20 2406 l0 2372 -425 0
-425 0 0 -2362z"/>
<path d="M10352 6277 l3 -2373 25 -37 c48 -71 -20 -67 1073 -67 l984 0 34 23
c74 49 69 -30 69 1145 0 1168 -4 1104 65 1136 42 20 59 20 101 0 68 -32 64 36
64 -1126 l0 -1054 23 -44 c37 -74 59 -81 254 -81 289 1 261 -2 234 17 -13 9
-29 32 -37 50 -13 30 1 163 146 1431 88 769 160 1406 160 1415 0 17 -45 18
-857 18 -661 0 -864 3 -882 13 -39 20 -66 64 -65 106 1 31 44 105 255 437 648
1022 622 980 622 1017 0 56 -17 64 -352 148 -212 53 -551 125 -786 166 -145
25 -165 26 -643 30 l-492 4 2 -2374z"/>
<path d="M14464 5425 c-23 -10 -98 -121 -369 -551 -187 -296 -413 -653 -501
-793 -91 -143 -171 -259 -183 -265 -12 -5 -21 -12 -21 -15 0 -3 181 -4 402 -1
390 5 405 6 459 28 155 63 272 196 308 352 14 60 15 1194 1 1220 -15 28 -61
40 -96 25z"/>
</g>
</svg>
