<?xml version="1.0" standalone="no"?>
<!DOCTYPE svg PUBLIC "-//W3C//DTD SVG 20010904//EN"
 "http://www.w3.org/TR/2001/REC-SVG-20010904/DTD/svg10.dtd">
<svg version="1.0" xmlns="http://www.w3.org/2000/svg"
 width="100.000000pt" height="100.000000pt" viewBox="0 0 100.000000 100.000000"
 preserveAspectRatio="xMidYMid meet">

<g transform="translate(0.000000,100.000000) scale(0.100000,-0.100000)"
fill="#000000" stroke="none">
<path d="M131 926 c-48 -27 -50 -42 -51 -344 0 -307 3 -326 55 -350 14 -7 49
-12 77 -12 l51 0 -7 -42 c-4 -25 -18 -54 -33 -70 -26 -27 -24 -48 5 -48 67 0
150 55 187 124 l20 36 203 0 c221 0 248 5 270 55 17 37 17 573 0 610 -24 53
-38 55 -410 55 -265 -1 -348 -4 -367 -14z m729 -46 c19 -19 20 -33 20 -300 0
-267 -1 -281 -20 -300 -19 -19 -33 -20 -235 -20 l-215 0 -24 -49 c-36 -70
-120 -137 -99 -78 4 12 8 45 8 72 l0 50 -73 5 c-58 4 -77 9 -88 24 -11 16 -14
74 -14 298 0 265 1 279 20 298 19 19 33 20 360 20 327 0 341 -1 360 -20z"/>
<path d="M271 806 c-15 -18 23 -86 47 -86 9 0 37 -20 63 -46 37 -37 48 -42 57
-31 9 10 2 23 -33 57 -25 24 -45 52 -45 61 0 9 -16 26 -36 38 -42 25 -39 24
-53 7z"/>
<path d="M575 810 c-41 -17 -69 -59 -71 -106 -2 -44 -6 -50 -123 -168 -123
-125 -137 -149 -105 -180 31 -32 55 -18 180 105 118 117 124 121 168 123 35 1
52 8 76 31 32 30 46 79 35 115 -7 21 -9 20 -51 -21 l-44 -43 -27 27 -27 27 43
44 c35 36 40 44 26 50 -22 8 -55 7 -80 -4z"/>
<path d="M559 514 l-34 -35 71 -70 c73 -71 100 -82 128 -53 28 28 18 54 -51
125 -36 38 -69 69 -73 69 -3 0 -22 -16 -41 -36z"/>
</g>
</svg>
