<?xml version="1.0" standalone="no"?>
<!DOCTYPE svg PUBLIC "-//W3C//DTD SVG 20010904//EN"
 "http://www.w3.org/TR/2001/REC-SVG-20010904/DTD/svg10.dtd">
<svg version="1.0" xmlns="http://www.w3.org/2000/svg"
 width="100.000000pt" height="100.000000pt" viewBox="0 0 100.000000 100.000000"
 preserveAspectRatio="xMidYMid meet">

<g transform="translate(0.000000,100.000000) scale(0.100000,-0.100000)"
fill="#000000" stroke="none">
<path d="M131 926 c-48 -27 -50 -42 -51 -344 0 -307 3 -326 55 -350 14 -7 48
-12 75 -12 47 0 50 -2 50 -26 0 -29 -14 -60 -42 -91 -45 -48 19 -58 103 -16
43 22 60 39 84 80 l30 52 202 1 c219 0 245 5 269 51 19 37 21 573 2 614 -24
53 -38 55 -410 55 -265 -1 -348 -4 -367 -14z m193 -127 c20 -12 36 -26 36 -32
0 -6 21 -33 47 -59 45 -45 46 -49 30 -65 -16 -16 -20 -15 -65 30 -26 26 -53
47 -59 47 -6 0 -21 16 -32 36 -17 28 -19 39 -10 50 14 17 11 18 53 -7z m331
15 c14 -6 9 -14 -25 -49 l-42 -43 18 -26 c11 -14 23 -26 29 -26 5 0 28 18 51
41 40 39 42 40 49 19 11 -36 -3 -85 -35 -115 -24 -23 -41 -30 -76 -31 -44 -2
-50 -6 -168 -123 -125 -123 -149 -137 -180 -105 -32 31 -18 55 105 180 117
118 121 124 123 168 3 79 81 136 151 110z m18 -333 c69 -71 79 -97 51 -125
-28 -29 -55 -18 -128 53 l-71 70 34 35 c19 20 38 36 41 36 4 0 37 -31 73 -69z"/>
</g>
</svg>
